<?xml version="1.0" encoding="utf-8"?>
<!-- Generator: Adobe Illustrator 26.3.1, SVG Export Plug-In . SVG Version: 6.00 Build 0)  -->
<svg version="1.1"
	 id="svg2" xmlns:cc="http://creativecommons.org/ns#" xmlns:sodipodi="http://sodipodi.sourceforge.net/DTD/sodipodi-0.dtd" xmlns:svg="http://www.w3.org/2000/svg" xmlns:dc="http://purl.org/dc/elements/1.1/" sodipodi:docname="Chinese black dragon.svg" xmlns:inkscape="http://www.inkscape.org/namespaces/inkscape" xmlns:rdf="http://www.w3.org/1999/02/22-rdf-syntax-ns#"
	 xmlns="http://www.w3.org/2000/svg" xmlns:xlink="http://www.w3.org/1999/xlink" x="0px" y="0px" viewBox="0 0 1000 1000"
	 style="enable-background:new 0 0 1000 1000;" xml:space="preserve">
<style type="text/css">
	.st0{fill-rule:evenodd;clip-rule:evenodd;fill:#500800;}
	.st1{fill-rule:evenodd;clip-rule:evenodd;fill:#220000;stroke:#1D1D1B;stroke-width:0.9595;}
	.st2{fill-rule:evenodd;clip-rule:evenodd;fill:#220000;stroke:#1D1D1B;stroke-width:0.6397;}
	.st3{fill-rule:evenodd;clip-rule:evenodd;fill:#220000;stroke:#1D1D1B;stroke-width:1.2793;}
	.st4{fill-rule:evenodd;clip-rule:evenodd;fill:#220000;stroke:#1D1D1B;stroke-width:1.5;}
	.st5{fill-rule:evenodd;clip-rule:evenodd;fill:#220000;stroke:#1D1D1B;}
	.st6{fill-rule:evenodd;clip-rule:evenodd;fill:#220000;stroke:#1D1D1B;stroke-width:2;}
</style>
<rect class="st0" width="1000" height="1000"/>
<sodipodi:namedview  bordercolor="#666666" borderopacity="1" gridtolerance="10" guidetolerance="10" id="namedview8" inkscape:current-layer="svg2" inkscape:cx="250" inkscape:cy="250" inkscape:pageopacity="0" inkscape:pageshadow="2" inkscape:window-height="738" inkscape:window-maximized="1" inkscape:window-width="1280" inkscape:window-x="-8" inkscape:window-y="-8" inkscape:zoom="1.038" objecttolerance="10" pagecolor="#ffffff" showgrid="false">
	</sodipodi:namedview>
<g id="g4982" transform="matrix(1.4002388,0,0,1.3643095,-189.11729,-284.85314)">
	
		<path id="path7473" inkscape:connector-curvature="0" sodipodi:nodetypes="cssssssscssssssssscssssssssssssssssssscc" class="st1" d="
		M589.3,592c0,0,1.4-4.2,1.3-6c-0.1-1.8-1.9-3.9-1.7-5.6c0.2-1.8,1.5-4.1,2.9-5.3c0.9-0.8,2.7-1.4,3.9-1.3c2.2,0.3,5.1,2,6.3,3.9
		c0.9,1.5,1,4.2,0.3,5.8c-0.2,0.6-1.2,1-1.6,1.5c-1.8,2.6-3.8,9.8-3.8,9.8s4.6-4.4,6.9-6.1c1-0.7,2.7-1.3,3.6-2.1
		c1.1-1,1.9-3,3.3-3.3c2-0.5,4.2,0.8,5.5,2.4c0.9,1.1,1.2,3.1,1.6,4.5c0.4,2,0.4,2.9,0,5c-0.3,1.6-0.5,3.6-2.1,4.1
		c-1.4,0.4-2.4,0.4-3.8,0.1c-1.2-0.3-2.8,0.2-4,0.4c-2.2,0.5-7,2.3-7,2.3s4.2-0.5,5.9-0.2c1.8,0.2,4.3,0.6,5.8,1.7
		c1.8,1.3,2.4,4.7,4,6.2c0.3,0.3-0.3,3.5-1.3,4.4c-1.4,1.2-3.6,2.7-5.5,2.8c-1.2,0.1-2.9-0.4-3.7-1.3c-0.6-0.6-0.2-2.3-0.9-2.8
		c-1.1-1-3.2-0.8-4.3-1.7c-1.1-0.8-1.9-1.9-3.2-2.2c-1.5-0.3-2,1.5-3.3,2.3c-1.6,0.9-5.3,0.1-6.4,1.6c-0.9,1.3-1.2,3.2-1.6,4.8
		c-0.3,1.5-0.9,3.4-1.9,4.6c-0.8,1.1-2.3,2.3-3.6,2.7c-1.9,0.7-2.7,0.3-4.5-0.3c-1.9-0.6-2.4-1.7-3.6-3.2c-0.6-0.8-1.4-1.9-1.3-2.9
		c0.3-3.9,3.8-7,5.7-10.5c0.8-1.4,1.4-3.5,2.3-4.7c1.8-2.4,7.3-6.8,7.3-6.8L589.3,592L589.3,592z"/>
	<path id="path7475" inkscape:connector-curvature="0" sodipodi:nodetypes="cssscssss" class="st2" d="M596.5,576.2
		c0-1.1,1-2.6,1.8-3.3c1.1-0.9,3.1-1.6,4.5-1.4c1,0.1,2.7,0.1,3.9,0.9c2.2,1.3,3.9,3.6,3.9,3.6s-3.9-1.2-5.5-0.7
		c-1.6,0.5-2.3,3.4-3.9,3.9c-1,0.3-2.5,0.2-3.4-0.4C597.2,578.3,596.5,577.1,596.5,576.2L596.5,576.2z"/>
	<path id="path7477" inkscape:connector-curvature="0" sodipodi:nodetypes="cssscssss" class="st2" d="M576.9,623.1
		c-0.7,0.9-1,2.6-0.8,3.7c0.2,1.4,1.3,3.2,2.4,4.1c0.8,0.6,2.1,1.7,3.5,2c2.5,0.5,5.3-0.1,5.3-0.1s-3.7-1.7-4.6-3.2
		c-0.8-1.4,0.5-4.1-0.3-5.5c-0.5-0.9-1.8-1.8-2.8-1.9C578.7,622,577.4,622.4,576.9,623.1z"/>
	<path id="path7479" inkscape:connector-curvature="0" sodipodi:nodetypes="cssscssss" class="st2" d="M613.4,612.3
		c1.1,0,2.6,1,3.3,1.9c0.9,1.1,1.5,3.1,1.3,4.5c-0.1,1-0.2,2.7-1,3.9c-1.4,2.2-3.7,3.8-3.7,3.8s1.3-3.9,0.8-5.5
		c-0.5-1.6-3.3-2.4-3.8-4c-0.3-1-0.1-2.5,0.5-3.3C611.3,612.9,612.5,612.2,613.4,612.3L613.4,612.3z"/>
	<path id="path7481" inkscape:connector-curvature="0" sodipodi:nodetypes="cssscssss" class="st2" d="M615,588.7
		c0.8-0.8,2.5-1.1,3.6-1c1.4,0.1,3.3,1.1,4.2,2.2c0.6,0.8,1.8,2,2.2,3.4c0.6,2.5,0.2,5.3,0.2,5.3s-1.9-3.6-3.4-4.4
		c-1.5-0.7-4,0.7-5.5,0c-0.9-0.4-1.9-1.7-2.1-2.7C614,590.7,614.4,589.4,615,588.7L615,588.7z"/>
	<path id="path7471" inkscape:connector-curvature="0" sodipodi:nodetypes="csscssssscccsssscc" class="st1" d="M587.6,606.1
		c0,0,3.5-1.5,4.3-2.8c1.3-2.3,1.5-6.4,0.5-8.9c-0.5-1.2-3.2-2.9-3.2-2.9s-1.2,3.4-2.4,3.9c-5.1,2.3-12.7-2.9-18.3-3
		c-1.4,0-3.2,0.9-4.5,0.5c-1.7-0.4-3.6-1.9-4.6-3.3c-3.1-4.4-2.9-12.3-5.3-17.1c-1.6-3.3-7.2-9.9-7.2-9.9l-13.3,3.9l-5.5,12.9
		c0,0,7.2,12.9,13.5,21.3c1.7,2.3,1.3,5.7,3.1,6.6c2.1,1.1,5.5,1.5,7.9,1.5c6.6,0.1,14.7,0.2,21.1-1.5c2.3-0.6,7.3-3,7.3-3
		L587.6,606.1L587.6,606.1z"/>
	
		<path id="path7504" inkscape:connector-curvature="0" sodipodi:nodetypes="cssssssscssssssssscssssssssssssssssssscc" class="st1" d="
		M470.7,721.1c0,0,4.3-0.8,5.9-1.7c1.5-0.9,2.5-3.5,4.1-4.1c1.7-0.7,4.3-0.6,6,0c1.1,0.5,2.5,1.7,3,2.8c0.8,2.1,0.7,5.5-0.5,7.4
		c-0.9,1.5-3.2,2.8-4.9,3c-0.6,0.1-1.4-0.6-2.1-0.7c-3.1-0.3-10.5,1.3-10.5,1.3s6.1,2,8.6,3.2c1.1,0.5,2.4,1.8,3.6,2.2
		c1.4,0.5,3.5,0.3,4.5,1.3c1.4,1.5,1.2,4.1,0.5,6c-0.5,1.3-2.1,2.6-3.2,3.5c-1.6,1.3-2.4,1.7-4.4,2.4c-1.6,0.5-3.4,1.2-4.6,0.1
		c-1-1.1-1.5-1.9-1.9-3.3c-0.3-1.2-1.5-2.4-2.2-3.3c-1.4-1.7-5.3-5.1-5.3-5.1s2.4,3.5,3,5.1c0.6,1.7,1.5,4.1,1.2,5.9
		c-0.3,2.2-3,4.3-3.6,6.5c-0.1,0.4-3.2,1.4-4.5,0.9c-1.7-0.6-4.1-1.9-5.1-3.5c-0.6-1-1-2.8-0.6-3.9c0.3-0.9,1.9-1.3,2.1-2.2
		c0.3-1.4-0.8-3.2-0.6-4.6c0.2-1.3,0.8-2.6,0.4-3.8c-0.5-1.5-2.3-1-3.6-1.8c-1.5-0.9-2.6-4.6-4.4-4.9c-1.6-0.2-3.4,0.4-5,0.9
		c-1.4,0.4-3.5,0.8-5,0.6c-1.3-0.2-3.1-0.9-4.1-1.8c-1.5-1.3-1.5-2.2-1.8-4.2c-0.3-1.9,0.4-2.9,1.2-4.7c0.4-0.9,1.1-2.1,1.9-2.5
		c3.6-1.6,8,0,12,0.1c1.6,0,3.7-0.4,5.3-0.2c3,0.4,9.5,3.2,9.5,3.2L470.7,721.1L470.7,721.1z"/>
	<path id="path7506" inkscape:connector-curvature="0" sodipodi:nodetypes="cssscssss" class="st2" d="M488.1,720
		c1-0.5,2.7-0.4,3.8,0.1c1.3,0.5,2.9,2,3.4,3.3c0.4,0.9,1.2,2.4,1.1,3.9c-0.1,2.6-1.3,5.1-1.3,5.1s-0.8-4-2-5.2
		c-1.2-1.1-4.1-0.5-5.3-1.6c-0.7-0.7-1.3-2.1-1.2-3.1C486.6,721.6,487.3,720.4,488.1,720L488.1,720z"/>
	<path id="path7508" inkscape:connector-curvature="0" sodipodi:nodetypes="cssscssss" class="st2" d="M437.5,724.9
		c-1.1-0.3-2.7,0.3-3.6,1c-1.1,0.9-2.3,2.6-2.4,4c-0.1,1-0.5,2.6-0.1,4c0.7,2.4,2.6,4.6,2.6,4.6s-0.3-4.1,0.6-5.5
		c0.9-1.4,3.8-1.5,4.7-2.9c0.5-0.9,0.8-2.4,0.4-3.4C439.3,726,438.3,725.1,437.5,724.9L437.5,724.9z"/>
	<path id="path7510" inkscape:connector-curvature="0" sodipodi:nodetypes="cssscssss" class="st2" d="M464.3,751.9
		c0.5,1,0.3,2.7-0.2,3.8c-0.6,1.3-2,2.8-3.4,3.3c-0.9,0.4-2.4,1.1-3.9,1c-2.5-0.2-5.1-1.4-5.1-1.4s4.1-0.7,5.2-1.9
		c1.2-1.2,0.6-4.1,1.7-5.3c0.7-0.7,2.2-1.3,3.2-1.2C462.7,750.4,463.9,751.1,464.3,751.9L464.3,751.9z"/>
	<path id="path7512" inkscape:connector-curvature="0" sodipodi:nodetypes="cssscssss" class="st2" d="M485.8,742.3
		c1.1,0.3,2.2,1.7,2.6,2.7c0.5,1.3,0.6,3.4,0.1,4.7c-0.4,0.9-0.9,2.5-2,3.5c-1.9,1.7-4.6,2.7-4.6,2.7s2.3-3.4,2.2-5.1
		c-0.1-1.7-2.5-3.2-2.6-4.9c0-1,0.6-2.5,1.3-3.1C483.6,742.3,484.9,742,485.8,742.3L485.8,742.3z"/>
	<path id="path7578" inkscape:connector-curvature="0" sodipodi:nodetypes="ccssccscsssssssscsc" class="st1" d="M449.1,717.9
		l0.2,3.4c0,0,2.6,2.1,4,2.5c2.8,0.8,7.2,1.2,9.8-0.1c1-0.5,2.3-2.8,2.3-2.8l-2.8-3.5c0,0-8.2-5.3-10.6-7.6c-2.8-2.7-7.6-13-7.6-13
		s8.2-11.9,5.3-21.4c-1.3-4.2-6.2-8.5-10.7-13.7c-3.6-4.2-6.8-9.2-8.8-12c-6.2-8.4-2.8-18.7-12.6-22.3c-4-1.5-10.7,0.7-13.6,3.8
		c-3.7,4-4.9,12.5-3.6,17.8c1.6,6.5,10.3,11.8,13.9,17.4c3.1,4.9,12,12.8,12.1,19.1c0.1,4.6-4.2,10.4-4.2,10.4s3.4,5.5,5.4,7.4
		C433.2,708.4,449.1,717.9,449.1,717.9L449.1,717.9z"/>
	
		<path id="path7671" inkscape:connector-curvature="0" sodipodi:nodetypes="cssscsscssscssscssscssscssscsscssscsscsscscsscssscsscsscssscsscssscscccsssscssscssscsccssscsscsscssscsscssscsscsscsscssscs" class="st1" d="
		M382.4,515.1c3.4-1,8-2.2,11.3-3.5c3.4-1.4,8.1-3.1,11-5.4c1.2-0.9,5.2-5.2,6.6-6.9c2.4-2.9,2-3.5,2-3.5s-6.7,6.2-10.2,8
		c-1.6,0.8-5.2,2-7,2.4c-0.7,0.2-1.1-0.1-1.1-0.1s8.7-7,12.3-10.2c2.2-2,5.3-4.7,7.2-7.1c0.4-0.5,2.1-2.8,2.6-3.6
		c1-1.6,0.9-1.9,0.9-1.9s-0.7,0.5-2,1.5c-1.4,1-3.4,2.6-4.4,3.3c-2.3,1.6-3.4,2.6-6.2,3.3c-1,0.2-3.4,0.7-3.4,0.7s5-5,8.3-7.7
		c2.3-1.8,5.4-4.2,7.4-6.2c1.6-1.7,3.9-3.9,4.8-6.1c0.5-1.2,0.3-4.4,0.3-4.4s-1.4,2.6-2.2,3.5c-1.1,1.3-7.4,6.7-9,7.7
		c-0.6,0.4-1.3,1-2.2,1.4c-0.7,0.3-1.1,0.1-1.1,0.1s6.1-7,8.5-10.5c1.7-2.4,3.8-5.8,4.9-8.5c0.4-1,1.3-3.9,1.7-5.5
		c0.6-2.1,0.6-2.9,0.6-2.9s-4.6,5.9-6.7,8.4c-0.7,0.9-2.4,3.2-3.4,4.3c-0.6,0.8-0.8,0.8-0.8,0.8s0.1-0.2,0.6-1.1
		c1.4-2.5,4.5-8,5.7-10.7c0.9-2,3-7.1,4-10c0.9-2.4,0.8-2.8,0.8-2.8s-3.7,5.1-5.7,6.9c-0.5,0.5-1.7,1.5-2.5,2.1
		c-0.8,0.5-1.2,0.5-1.2,0.5s7.3-11.4,8.1-17c0.3-1.8,0.1-5.6-0.4-8.1c-0.6-2.6-1.5-3.9-1.5-3.9s0.1,7.4-0.8,10.3
		c-0.7,2.1-3.9,6.3-3.9,6.3s0.9-12.8,0.9-18.3c0-4.2-1.3-9.7-0.8-13.8c0.3-2.8,2.8-9.1,2.8-9.1s-0.7,0.4-2.1,2.5
		c-1.1,1.6-2.8,4.9-3.3,6.1c-2.2,5.5-3.3,13.6-4.1,19.5c-0.5,4.2-0.6,13.9-0.6,13.9s-0.4-0.2-0.8-1.2c-0.9-2.4-2.3-7.1-2.7-9.4
		c-0.8-4.1-0.8-13.8-0.8-13.8s-0.3,0-1,2.7c-0.7,3-1.7,8.8-1.7,11.1c0.1,7.4,5,24.1,5,24.1s-0.7-0.6-1.1-1.8
		c-1.5-4.5-5.1-15.9-8.2-20.8c-0.6-0.9-2.1-3.2-3.2-4.4c-1.8-1.9-3.4-2.5-3.4-2.5s3.7,6,4.6,8.8c1.4,4.5,0.6,11.2,2.1,15.7
		c0.9,2.8,6.3,13.4,6.3,13.4s-0.9-0.3-1.8-1.5c-2.4-2.9-6.7-8.7-8.1-10.7c-3.1-4.5-2.5-13-6.1-17.1c-1.1-1.3-5.1-2.5-5.1-2.5
		l3.3,4.2c3.1,3.9-0.3,9.8,1.5,14.9l4.5,9.7l7.9,13.1c0,0-0.6,0-1.5-0.9c-2.1-2-6.1-6.3-9.2-10c-2.4-2.8-3.6-5.5-4.6-7.3
		c-1.1-2.2-0.7-5.9-2.1-7.9c-0.6-0.9-2.9-2.1-2.9-2.1s0.3,2.9,0.5,4.2c0.4,2.6,0.6,6.2,1.6,8.7c0.7,1.7,0.8,4.3,2.2,6.9
		c4.2,7.3,11.5,16,11.5,16s-0.4,0-1.3-0.8c-2.4-2.3-7.4-7.7-11.2-12.3c-2.6-3.3-3.6-6.5-5-8.6c-1.5-2.3-4-8.1-4-8.1s-0.8,6.5,0,9.1
		c1.2,4,6.8,12.5,6.8,12.5l9.3,11.6c0,0-0.4,0.1-1.6-0.6c-1.5-0.9-4.9-3.8-6.7-6.2c-2.2-2.9-4.6-5.7-5.8-7.3
		c-2.6-3.4-7.2-12.3-7.2-12.3s-0.2,0.9,0.5,4c0.6,2.6,2,7.2,2.7,8.8c2.3,5.2,14.7,20.7,14.7,20.7s-0.9-0.2-2.1-1.4
		c-3.8-3.6-11.9-12.2-14.7-16.3c-1.5-2.1-3.9-7.7-3.9-7.7s-0.4,0.5-0.1,3.1c0.3,2.3,1.2,6.7,1.9,8.2c1.8,4.3,2.1,2.9,4.2,7
		c0.9,1.7,10,11.5,10,11.5s-1.3-0.1-2.5-0.9c-3.4-2.2-9.5-7.1-11.1-9c-3.2-3.8-5-8.8-5-8.8s-0.3,0.5-0.2,2.1
		c0.1,0.8,0.4,2.7,0.5,3.5c0.4,3.4,1.5,4.6,3.1,7.7c2.6,4.8,9.9,11.6,9.9,11.6s-1.1-0.1-2.3-0.9c-2.5-1.7-6.6-5.1-8.6-7.7
		c-2.1-2.7-4.9-10.1-4.9-10.1s-0.4,1.3-0.5,3.6c0,2.4,0.3,5.9,0.9,7.5c1.9,5,8.9,11.2,8.9,11.2s-0.5,0.3-1.6-0.3
		c-1.4-0.7-3.5-2.4-5.1-4.3c-1.6-1.9-4.1-6.7-4.1-6.7s-0.6,1.2-0.3,3c0.2,1.6,1.2,3.6,1.8,5.3c1,2.9,5.2,9.4,9.8,12.8
		c5.4,4,1.6,5.8,1.6,5.8S377.3,516.6,382.4,515.1L382.4,515.1z"/>
	
		<path id="path7383" inkscape:connector-curvature="0" sodipodi:nodetypes="ccscscsscscscscscccsscscscscscscsccscscscscscscscccsscsccscscccsccccsccsccscscscscscscccsccscscscccccscccsccccscscsccscsccccccsccccsccccscccccccccccccccccccc" class="st3" d="
		M498.7,434.9l-10.6-5.7c0,0-6.6,0.1-9.3-0.2c-2.6-0.2-8.7-1.2-8.7-1.2s2.8,2.9,4.1,4c1.3,1,4.8,3,4.8,3s-5.1,1-7.3,1.1
		c-2.7,0.1-6.5-1.1-9.1-0.5c-1.4,0.3-4.2,2.1-4.2,2.1s2.7,0.5,3.7,1.2c0.9,0.6,2.4,2.7,2.4,2.7s-3.7,2-5.4,2.7
		c-3.2,1.2-10.9,3.1-10.9,3.1s1.2,2,1.9,2.7c1,1,3.8,2.7,3.8,2.7s-4.5-0.5-6.2,0.1c-1.8,0.6-5.1,3.7-5.1,3.7l4.2,0.8l1.4,3.6
		c0,0-4.5,2.3-5.4,4.1c-0.8,1.7-0.9,2.5-1.5,4.3c-0.4,1.3-2.7,3.5-2.7,3.5s3.7-0.6,5.1-1.9c0.6-0.6,4,0,4,0s-1,4.7-2.7,6.6
		c-1.2,1.2-5.4,1.8-5.4,1.8s3.8,4.8,5.9,6.1c1.8,1.1,4.6-0.2,4.6-0.2s-3.1,4.1-3.7,6c-0.6,2.2-1.2,9-1.2,9s3.9-5.4,5.3-4.1
		c1.1,1,4-0.4,4.1-1c0.4,0.8-1.2,3.8-1.1,5c0.3,3.3,3.9,10.4,3.9,10.4l4.2-4.5c0,0-1.2,3.8-1.1,5.4c0.1,2.2,2.3,7.1,2.3,7.1
		s0.4-3.6,1.6-4.4c1.3-0.8,5,0.5,5,0.5s0.7,5.5,2,7.4c2.2,3.2,10.5,7.5,10.5,7.5s-3-4-2.8-6c0.1-1,2-2.6,2-2.6s4.8,3.3,6.2,5.3
		c1.7,2.3,3.5,8.8,3.5,8.8s2.1-0.3,2.7-0.8c1.3-1,2.7-4.8,2.7-4.8s3,2.8,3.8,4.3c0.8,1.4,1.7,5.1,1.7,5.1l4.8-3.9l1.7,8.6
		c0,0,5.3-1.9,7.5-1.5c0.8,0.2,2.5,0.6,2.4,1.5c-0.2,1.3-4.1,1.2-4.1,1.2s4.2,4.9,6.4,6.4c1.2,0.8,4.5,1.9,4.5,1.9l-3.9,1.8
		c0,0-1.6,0.2-3-0.6c-1.4-0.8-3.7-3.9-3.7-3.9s-0.4,4.5-0.2,6.5c0.1,1.5,1.4,5.5,1.4,5.5l-6.4-6.6l-2.9,5.6c0,0-1.6-5.4-2.9-7.5
		c-0.9-1.5-3.9-4.3-3.9-4.3l-2.3,5.2l-4-9.6l-4.6,1.4c0,0,0-4.1-0.7-5.6c-0.5-1-2.6-2.6-2.6-2.6l-4.9,2.6c0,0-1.6-5.4-3.1-7.1
		c-1-1.2-4.4-2.8-4.4-2.8l-3.3,4.6c0,0-5.7-1.8-6.2-3c-0.5-1,1.6-3.9,1.6-3.9s-3.9,0-5.7,0.8c-1.5,0.6-5.2,5-5.2,5s-2.4-2.7-3.7-3.7
		c-1.2-1-2.8-3.7-2.8-3.7s-3.2,1.6-4,2.8c-0.8,1.1-1.3,4.3-1.3,4.3s-4.6-3.8-6.9-4.8c-2.2-1-7.9-1.6-7.9-1.6s2.7,4.7,2.8,6.9
		c0,1-1,3.4-1,3.4l-9.5-4.7l-0.4,10.5c0,0-7.8-0.8-11,0.1c-2.4,0.7-7.1,4.3-7.1,4.3l8.5,3.9c0,0-9.8,2.2-13.3,4.4
		c-1.2,0.8-3.1,3.4-3.1,3.4s4.2,0.9,5.2,2.2c1.1,1.5,2,4.3,2,4.3s-4.5,0.2-6.2,0.8c-1.4,0.5-5.4,2.2-5.4,2.2l7.3,6.3l-10.4,5.9
		l5.2,6l-7.9,7.2c0,0,3.1,0.9,4.1,1.7c1.4,1.2,3.4,5.1,3.4,5.1l-9,5.5l9.6,5.8c0,0-3.1,1.1-4.9,2.2c-1.7,1-4.6,3.3-4.6,3.3l8.2,5.3
		l-11.3,0.1l1.5,6.8c0,0-4.5-2.7-5.1-4.3c-0.4-1-2-4.9-2-4.9s-2.1,2.2-3.8,2.5c-1.9,0.3-3.2,3-3.2,3s-2.5-4.4-2.2-5.7
		c0.8-3.1,3.9-7.1,3.9-7.1l-10.3,0.5c0,0,2.5-5.3,2.8-8.6c0.2-2.6,0.5-6.5,0.5-6.5s-2.2,2.1-3.6,3.4c-1,1-4.7-0.8-4.7-0.8l4.6-15.4
		l-5.8-0.5l5-8l-4-3.2l7.2-7.4c0,0-2.7-1.3-3.3-2.3c-0.7-1.1,0.4-4,0.4-4l5-4.2l0.1-6.9l4.7-2.5c0,0-0.2-1.5-0.6-2.3
		c-0.5-1.2,0.4-4.2,0.4-4.2l6.6-0.6l0.2-5.9l8.6-1.9c0,0-2.1-1.4-2.4-2.4c-0.4-1.2,1.6-3.7,1.6-3.7l6.4-2.6l-2.7-12.6l0,0
		l-27.5,19.2l-23.9,58.8l19.7,54.2l30.6,10.1l28.9-24l13.4-60.3l25.7-10.7l43.5,22l24.7,5.2l17.9-20.6l9.9-18l-19.8-21.2l-44-27.4
		l-17.3-27.3l13.7-22L498.7,434.9L498.7,434.9z"/>
	
		<path id="path7292" inkscape:connector-curvature="0" sodipodi:nodetypes="csssssssssssssssssssssssssssscssssssssssssssssssssssssssssscc" class="st1" d="
		M543.9,436.8c0,0-7.8-2.1-17.7-3.7c-9.8-1.6-21.5-3.4-34.1-0.5c-5.6,1.3-12.3,3.3-19.2,6.8s-14.9,8.4-19.3,19.1
		c-4.1,10.1-2.4,18.6-0.2,25.9c2.2,7.3,5.4,13.5,9.8,19c11.4,14.3,26.2,20.9,37.8,26.6c11.6,5.7,19.9,10.5,24.4,16.8
		c0.1,0.2,1.5,3.2,1.9,5.7c0.3,1.7-0.2,2.4-0.3,2.8c-0.4,0.8-2.8,4.5-6.9,6.8c-2.3,1.3-6.6,4.2-11.4,3.4c-4.3-0.8-8.9-5-12.5-8.2
		c-7.6-6.8-16.6-17.5-33.4-20.2c-11.5-1.9-25.1-3.1-39.3,6.7c-17.8,12.2-24.2,27.9-29.1,41.8c-3.7,10.5-1.5,20.8-0.6,26.1
		c0.7,4.3,1.2,7.3,0.9,8.9c-0.1,0.7-1.7,3.7-3.4,6.1c-0.9,1.2-6.3,5.9-11.4,6.5c-4.6,0.6-7.4,0.2-10.4-0.9
		c-6.8-2.4-10.5-7.3-12.7-10.8c-2.2-3.4-7.5-14-8.9-23.1c-0.8-5.3-0.6-15.6,1.1-24.9c1.7-9.3,11.4-34.7,21-41.4s27.7-31.4,32.6-43.9
		c0,0,6.3-13.2,7.6-19.3c0.9-4.5,1.4-14,1.4-19.2c0-2.5-0.4-3.4-0.4-3.4s-3,17.4-11,30.9c-4,6.7-8.3,10.8-13.6,16.4
		c-8.8,9.4-15,14.5-18.4,16.9c-9.6,6.7-16.2,13.1-24.9,23.4c-9,10.7-16.7,23.9-19.1,36.6c-2.3,12.7-5.2,23-3.6,34
		c1.6,11.3,4.2,22.2,10.5,32.2c6.3,10,15.3,20.1,27.9,24.5c4.5,1.6,8,3.1,16.6,4.9c8.5,1.8,20.8,0,30.7-9.1c4-3.7,6.6-7.2,10.3-12.2
		c3.6-5,7.6-8.7,9.5-18.9c1.8-9.6,3.2-14.9,2.3-20.2c-0.2-1.2-0.6-3.5-0.5-5.7c0.4-5.2,1.9-11.3,1.9-11.3
		c4.2-11.4,10-13.4,13.6-15.8c0.4-0.3,7.4-1.9,14.8,0.2c5.9,1.7,10.9,7.3,14.6,10.5c8.2,7.3,19,18.5,37,17.8
		c10.2-0.4,19.3-3.8,27.9-8.7c8.6-4.9,16.7-11.3,21.7-21.8c4.2-8.8,3.8-16.7,2.6-23.9s-3.5-13.9-8-20.3
		c-10.7-15.2-25.6-22.2-37.5-28c-11.9-5.8-20-10.6-24.9-16.9c-0.5-0.6-2.3-3.9-2.9-5.4c-0.4-1.2,0.8-4.8,1.9-5.3
		c3.1-1.6,7.4-1.4,10.7-2.2c2.6-0.6,11.2-2.2,19.1-0.9s14.2,2.9,14.2,2.9L543.9,436.8z"/>
	
		<path id="path7516" inkscape:connector-curvature="0" sodipodi:nodetypes="cssssssscssssssssscssssssssssssssssssscc" class="st1" d="
		M524.2,647.8c0,0,4.3-1,5.8-2c1.5-1,2.3-3.6,3.9-4.3c1.6-0.8,4.3-0.8,6-0.3c1.2,0.4,2.6,1.6,3.1,2.7c0.9,2,0.9,5.4-0.1,7.4
		c-0.8,1.5-3.1,3-4.8,3.3c-0.6,0.1-1.4-0.5-2.1-0.6c-3.2-0.1-10.4,1.8-10.4,1.8s6.2,1.7,8.7,2.8c1.1,0.5,2.5,1.6,3.7,2
		c1.4,0.4,3.5,0.1,4.5,1.1c1.5,1.4,1.4,4,0.8,6c-0.4,1.4-2,2.7-3,3.6c-1.5,1.4-2.3,1.8-4.3,2.6c-1.5,0.6-3.4,1.4-4.6,0.3
		c-1.1-1-1.6-1.8-2.1-3.2c-0.4-1.1-1.6-2.3-2.4-3.2c-1.5-1.6-5.5-4.8-5.5-4.8s2.5,3.3,3.3,5c0.7,1.6,1.7,4,1.5,5.8
		c-0.2,2.2-2.7,4.5-3.3,6.6c-0.1,0.4-3.1,1.5-4.4,1.2c-1.8-0.5-4.2-1.7-5.2-3.2c-0.7-1-1.1-2.7-0.8-3.9c0.2-0.9,1.8-1.4,2-2.3
		c0.3-1.4-1-3.1-0.8-4.6c0.1-1.3,0.7-2.6,0.2-3.9c-0.5-1.5-2.3-0.9-3.7-1.6c-1.6-0.9-2.9-4.5-4.7-4.6c-1.6-0.1-3.4,0.6-4.9,1.2
		c-1.4,0.5-3.4,1-4.9,0.8c-1.3-0.1-3.1-0.8-4.2-1.6c-1.5-1.2-1.6-2.1-2-4.1c-0.4-1.9,0.2-2.9,0.9-4.7c0.3-0.9,1-2.2,1.8-2.6
		c3.5-1.8,8-0.4,11.9-0.5c1.6-0.1,3.7-0.6,5.3-0.4c3,0.3,9.6,2.8,9.6,2.8L524.2,647.8L524.2,647.8z"/>
	<path id="path7518" inkscape:connector-curvature="0" sodipodi:nodetypes="cssscssss" class="st2" d="M541.5,645.9
		c1-0.6,2.7-0.5,3.8-0.1c1.3,0.5,2.9,1.8,3.5,3.1c0.4,0.9,1.3,2.3,1.3,3.8c0,2.6-1.1,5.2-1.1,5.2s-1-4-2.3-5.1
		c-1.3-1.1-4.1-0.3-5.4-1.3c-0.8-0.6-1.4-2.1-1.4-3.1C540.1,647.5,540.8,646.3,541.5,645.9L541.5,645.9z"/>
	<path id="path7520" inkscape:connector-curvature="0" sodipodi:nodetypes="cssscssss" class="st2" d="M491.2,653.2
		c-1.1-0.2-2.7,0.5-3.6,1.2c-1.1,0.9-2.1,2.7-2.2,4.2c-0.1,1-0.4,2.6,0.1,4c0.9,2.4,2.8,4.5,2.8,4.5s-0.5-4.1,0.4-5.5
		c0.8-1.4,3.7-1.7,4.6-3.1c0.5-0.9,0.6-2.4,0.2-3.4C493.1,654.2,492.1,653.3,491.2,653.2L491.2,653.2z"/>
	<path id="path7522" inkscape:connector-curvature="0" sodipodi:nodetypes="cssscssss" class="st2" d="M519.3,678.9
		c0.6,1,0.4,2.7,0,3.8c-0.5,1.3-1.9,2.9-3.2,3.5c-0.9,0.4-2.4,1.2-3.8,1.2c-2.6,0-5.2-1.2-5.2-1.2s4-0.9,5.1-2.1
		c1.1-1.2,0.4-4.1,1.5-5.3c0.7-0.8,2.1-1.4,3.1-1.3C517.7,677.4,518.9,678.1,519.3,678.9L519.3,678.9z"/>
	<path id="path7524" inkscape:connector-curvature="0" sodipodi:nodetypes="cssscssss" class="st2" d="M540.3,668.2
		c1.1,0.3,2.3,1.6,2.8,2.6c0.6,1.3,0.8,3.4,0.3,4.7c-0.3,0.9-0.8,2.6-1.8,3.6c-1.8,1.8-4.4,2.9-4.4,2.9s2.1-3.5,2-5.2
		c-0.1-1.7-2.7-3.1-2.8-4.8c-0.1-1,0.4-2.5,1.2-3.2C538.2,668.3,539.5,668,540.3,668.2L540.3,668.2z"/>
	<path id="path7574" inkscape:connector-curvature="0" sodipodi:nodetypes="csssccscssssssssscc" class="st1" d="M504.6,645.4
		c0,0,2,4.4,3.4,5.8c1.8,1.7,3.8,2.3,6.3,2.5c1.6,0.2,4.8-0.5,5.8-1.7c1.1-1.2,1.2-3.7,1.2-3.7l-2.2-6.4c0,0-3.8-18.4-2.1-26
		c1.5-6.8,11.4-20.1,11.4-20.1s3.9-9.1,2.7-12.9c-1.6-4.9-4.3-9.5-9.1-11.6c-3.6-1.6-9.4-1.9-13.2-0.9c-4.6,1.2-8.6,4.2-10.8,8.4
		c-2.9,5.4-2.8,14.7-2.4,20.8c0.2,3.1-0.5,6.6-1.4,10.3c-0.9,3.9-1.9,8.1-2.2,12.3c-0.1,1.5,1.5,2.1,3.1,3.1c1.7,1,3.3,2.3,4.3,3.5
		c2.6,3.2,5.8,12.3,5.8,12.3L504.6,645.4L504.6,645.4z"/>
	
		<path id="path7852" inkscape:connector-curvature="0" sodipodi:nodetypes="csssscssssssssssssssssscsssssssssscssssss" class="st1" d="
		M527.2,592.8c-0.6,1-1.1,3.4-2,4.1c-0.8,0.7-2.4,1-3.1,1.8c-0.6,0.7-1,1.9-1,2.7c0,0.9-0.2,2.2,0.3,3.3c0.7,1.5,2.1,2.8,2.1,2.8
		s-0.8-4.3,0.2-5.8c0.7-1,2.6-1.2,3.7-1.6c1.1-0.4,2.9-0.4,3.8-1.1c0.7-0.6,0.7-3,0.9-3.9c0.1-0.6-0.3-1.5-0.1-2.1
		c0.5-1.3,2.6-2.2,3.2-3.5c0.7-1.7,1.2-4.3,0.7-6c-0.6-1.7-2.4-3.7-4.1-4.5c-0.4-0.2-1.1,0.2-1.3-0.1c-0.6-0.6,0.1-1.9-0.1-2.7
		c-0.5-1.6-1.4-4-2.8-5c-1.2-0.9-3.4-1.3-4.9-1.1c-0.8,0.1-1.9,0.5-2.3,1.1c-0.5,0.6-0.2,1.8-0.5,2.5c-0.4,1-1.1,2.4-1.7,3.3
		c-0.5,0.7-1.4,1.5-2.2,1.9c-1.6,0.8-4,1.8-5.7,1.5c-1.3-0.2-3.5-2.5-3.5-2.5s0.6,2.3,1.6,3c0.6,0.4,1.3,1.1,2.3,1.4
		c1.1,0.3,2.5,0,3.2,0c1.9,0,4.5-0.7,6.2-1.6c0.8-0.5,1.3-2,2.2-2.2c0.8-0.2,2.2,0.3,2.6,1c0.4,0.9-0.5,2.3-1.1,3.1
		c-0.8,1.1-2.3,2.2-3.5,2.7c-1.7,0.8-4.6,0.2-6.2,1.2c-1.4,0.8-3.1,2.7-3.5,4.3c-0.5,1.9,0.9,6.5,0.9,6.5s0.9-4.4,2.2-5.8
		c0.8-0.9,2.4-1.4,3.6-1.7c1.4-0.3,3.4,0.4,4.8,0c1.2-0.3,2.5-2.2,3.8-2c1.1,0.2,2.3,1.5,2.5,2.5
		C528.2,591.1,527.6,592.1,527.2,592.8L527.2,592.8z"/>
	
		<path id="path7854" inkscape:connector-curvature="0" sodipodi:nodetypes="csssssssssssscssssssssssscsssssssscssss" class="st1" d="
		M501.8,565.2c2.6,0.3,6.3,2,7.5,4.3c0.5,1,0.4,2.7-0.3,3.6c-0.9,1.3-3.6,1-4.8,2c-2.2,1.8-4.4,5.1-5.2,7.8c-1,3.2-0.1,7.8-0.2,11.2
		c0,1.7,0.7,7.4-0.7,8.4c-1.6,1.2-4.6-0.9-6.3-1.9c-1.5-1-2.1-3.4-3.5-4.6c-1-0.8-2.4-2-3.6-2.2c-1.5-0.3-3.5-1.2-5-1.7
		c-1.2-0.4-2.6-1.8-3.2-2.9c-1-1.8-1.5-4.8-1.1-6.8c0.1-0.6,1.1-1.8,1.1-1.8s0,2.5,0.4,3.4c0.6,1.3,1.8,3,3.1,3.7
		c2.3,1.3,6.1,0.8,8.6,1.6c2.1,0.6,3,3,4.8,1.7c1-0.7,0.5-3.2-0.2-4.2c-0.7-1.1-0.9,0.2-1.9-0.7c-2.4-2-5-5.5-6.2-8.5
		c-0.3-0.9,0.4-2.6-0.3-3.2c-1.6-1.4-5.4,1.3-7.2,0.1c-1-0.7-2-1.9-2.2-3.1c-0.1-0.5-0.4-2.2-0.3-2.8c0.2-1.8,1.6-3.4,1.6-3.4
		s-0.3,3.3,0.6,4.1c1.3,1.2,4.2-0.3,6,0.1c1.9,0.5,4.5,1.5,5.9,2.9c0.9,1,0.8,3.1,1.7,4.1c1,1.2,2.9,2.8,4.5,2.6
		c1.7-0.3,1.9-2.8,1.9-4.5c0-1.6-0.7-2.3-1.4-3.7c-1.1-2.3,0.1-6.5-1.6-8.3c-1.3-1.4-6.2-1.5-6.2-1.5s2.2-1.9,3.4-2
		c1.8-0.1,4.2,1.1,5.5,2.4c1.1,1.1,0.8,3.9,2.2,4.6C499.8,566.4,500.9,565.1,501.8,565.2L501.8,565.2z"/>
	
		<path id="path7492" inkscape:connector-curvature="0" sodipodi:nodetypes="cssssssscssssssssscssssssssssssssssssscc" class="st1" d="
		M357.1,719.5c0,0,4.4,0.3,6.2-0.2c1.7-0.5,3.3-2.7,5-3c1.8-0.2,4.3,0.5,5.8,1.5c1,0.7,2,2.3,2.2,3.5c0.3,2.2-0.7,5.5-2.3,7
		c-1.2,1.2-3.8,1.9-5.5,1.7c-0.6-0.1-1.2-0.9-1.8-1.2c-3-1.1-10.4-1.4-10.4-1.4s5.4,3.4,7.5,5.2c1,0.8,1.9,2.3,2.9,3
		c1.2,0.8,3.3,1.1,4,2.4c1,1.8,0.2,4.3-1,5.9c-0.8,1.2-2.7,1.9-4,2.6c-1.8,0.9-2.8,1.1-4.8,1.2c-1.6,0.1-3.6,0.3-4.4-1.1
		c-0.7-1.3-1-2.2-1-3.7c0-1.2-0.8-2.7-1.4-3.8c-1-2-3.9-6.2-3.9-6.2s1.4,3.9,1.6,5.7c0.2,1.8,0.4,4.3-0.3,6c-0.9,2-3.9,3.5-5.1,5.4
		c-0.2,0.3-3.5,0.5-4.6-0.2c-1.5-1-3.5-2.9-4-4.6c-0.4-1.1-0.3-2.9,0.4-3.9c0.5-0.8,2.1-0.8,2.5-1.6c0.7-1.3,0-3.3,0.6-4.6
		c0.5-1.2,1.4-2.3,1.4-3.6c-0.1-1.5-1.9-1.5-3-2.6c-1.3-1.3-1.4-5.2-3.1-5.8c-1.5-0.6-3.4-0.4-5.1-0.4c-1.5,0.1-3.6-0.1-4.9-0.7
		c-1.2-0.5-2.8-1.7-3.5-2.8c-1.1-1.6-0.9-2.5-0.8-4.5c0.2-2,1.1-2.7,2.3-4.2c0.6-0.7,1.5-1.8,2.5-2c3.9-0.7,7.8,2,11.6,3
		c1.5,0.4,3.7,0.5,5.2,1.1c2.8,1.2,8.4,5.5,8.4,5.5L357.1,719.5L357.1,719.5z"/>
	<path id="path7494" inkscape:connector-curvature="0" sodipodi:nodetypes="cssscssss" class="st2" d="M374.2,722.8
		c1.1-0.3,2.7,0.3,3.6,1c1.1,0.8,2.3,2.6,2.5,4c0.1,1,0.5,2.6,0.1,4c-0.7,2.4-2.6,4.6-2.6,4.6s0.2-4.1-0.7-5.5
		c-0.9-1.4-3.8-1.5-4.7-2.9c-0.6-0.9-0.8-2.4-0.4-3.4C372.3,723.9,373.3,723,374.2,722.8L374.2,722.8z"/>
	<path id="path7496" inkscape:connector-curvature="0" sodipodi:nodetypes="cssscssss" class="st2" d="M323.9,714.9
		c-1-0.5-2.7-0.4-3.8,0.1c-1.3,0.6-2.8,2-3.4,3.3c-0.4,0.9-1.1,2.4-1.1,3.9c0.1,2.6,1.4,5.1,1.4,5.1s0.8-4,2-5.2
		c1.2-1.1,4.1-0.5,5.3-1.6c0.7-0.7,1.3-2.1,1.2-3.2C325.5,716.5,324.7,715.3,323.9,714.9z"/>
	<path id="path7498" inkscape:connector-curvature="0" sodipodi:nodetypes="cssscssss" class="st2" d="M343.2,747.8
		c0.2,1.1-0.4,2.7-1.1,3.6c-0.9,1.1-2.7,2.2-4.1,2.4c-1,0.1-2.6,0.5-4,0c-2.4-0.8-4.6-2.7-4.6-2.7s4.1,0.3,5.5-0.5
		c1.4-0.9,1.6-3.8,3-4.7c0.9-0.5,2.4-0.7,3.4-0.3C342.1,745.9,343,746.9,343.2,747.8L343.2,747.8z"/>
	<path id="path7500" inkscape:connector-curvature="0" sodipodi:nodetypes="cssscssss" class="st2" d="M366.4,743.7
		c1,0.6,1.7,2.2,1.9,3.3c0.2,1.4-0.2,3.5-1.1,4.6c-0.6,0.8-1.5,2.2-2.8,2.9c-2.3,1.2-5.1,1.5-5.1,1.5s3.1-2.7,3.4-4.4
		c0.4-1.6-1.7-3.8-1.3-5.4c0.2-1,1.2-2.2,2.1-2.7C364.3,743.2,365.7,743.3,366.4,743.7L366.4,743.7z"/>
	<path id="path7659" inkscape:connector-curvature="0" sodipodi:nodetypes="cssccssscsssssssscscc" class="st1" d="M338.9,712.1
		c0,0-0.1,2.8,0.6,3.8c1.9,2.8,6.2,5.7,9.5,5.9c2.2,0.1,6.8-3.1,6.8-3.1l-7.2-8.1c0,0,3-9,4.9-12.6c1.8-3.5,4.5-8.2,7.5-10.8
		c3-2.6,8.3-4.1,11.7-6.2c4.6-2.8,13.2-11.4,13.2-11.4s5.5-9.5,5.2-13.9c-0.4-4.2-2.4-7.9-5.4-10.7c-3-2.8-8-5.9-12.1-6.5
		c-3.4-0.5-8.2,0.4-11.1,2.1c-3.5,2-6.6,6.9-8.1,10.6c-1.2,3-1.1,7.3-1.4,10.6c-0.3,3.7,0.6,9.2-1.3,12.4c-1.4,2.3-5.1,4-7.6,4.8
		c-1,0.3-3.2,1.7-3.2,1.7s-3.1,13-2.5,19.2c0.3,2.8,2.8,8.9,2.8,8.9L338.9,712.1L338.9,712.1z"/>
	
		<path id="path7856" inkscape:connector-curvature="0" sodipodi:nodetypes="cssssssssssscsssssssssssscssssssssssssscssssssssscsssss" class="st1" d="
		M372.2,637.3c0.9-0.6,2.4-0.3,3.5-0.3c1.8,0,3.5,0.5,5.1,1.4c2.3,1.3,5.7,2.7,7.5,4.7c1.2,1.3,2.4,3.5,2.7,5.2
		c0.2,1-0.8,2.3-0.5,3.2c0.5,1.5,2.9,2.3,3.5,3.7c0.8,2.1,0.4,5.3,0,7.5c-0.4,1.9-1.4,4.4-2.5,6.1c-1,1.6-2.9,3.4-4.3,4.8
		c-1.6,1.6-4.1,3.3-5.6,5c-0.7,0.8-1.6,2.1-1.9,3.1c-0.5,1.7-0.1,5.7-0.1,5.7s-1.6-1.7-2.3-3.5c-0.2-0.5-0.2-1.5-0.2-1.8
		c-0.2-1.8,0.2-4.3,1.1-5.8c1.1-2,4.2-3.2,5.7-4.9c0.9-1.1,2.7-2.6,2.5-3.9c-0.1-0.4,0.9-1.4,0.8-2.6c-0.1-1.3-1.4-2.7-1.8-2.8
		c-0.6-0.1-1.4,0.1-1.9,0.5c-1.5,1-2.2,3.7-3.6,4.7c-1.3,1-3.3,3.6-4.9,3.6c-2-0.1-5.1-1.3-7.1-1c-0.9,0.1-1.3,3-1.6,3.9
		c-0.4,1.3,0.5,2.6,0.5,2.6s-1.5-0.5-2.3-1.4s-0.8-2.2-0.9-3c-0.3-1.6,0.1-4,1.2-5.2c1-1,3.2-1.2,4.6-1.3c1.2,0,2.9,1.4,4,0.8
		c1.4-0.7,1.3-3.5,2.3-4.7c1.3-1.6,3.6-3.2,5.3-4.3c0.8-0.5,2.6-0.6,2.9-1.5c0.4-1.2-0.6-3.2-1.7-3.7c-1.4-0.6-3.6,0.4-4.8,1.3
		c-1.7,1.3-1.8,5-3.6,6.1c-1.2,0.7-3.3,0.4-4.7,0.1c-1.3-0.3-3.1-1.3-4.4-1.1c-0.8,0.1-1.5,1.1-1.5,1.1s0.5-2.9,1.4-3.6
		c1.2-1,3.9,0.3,5.2-0.6c1.6-1.1,2-4.1,3.3-5.6c1.1-1.3,4.6-2,4.5-3.7c-0.1-1.5-2.7-2.9-4.2-2.8c-1.9,0.1-3.6,2.5-4.8,4
		c-0.9,1.1-1.2,3.1-2.1,4.2c-1.2,1.4-4.2,1.9-5.2,3.6c-0.8,1.3,0.3,3.8-0.7,5.1c-1.1,1.5-5.8,2.4-5.8,2.4s2.3-2.8,2.9-4.2
		c0.6-1.5,0.2-3.9,1-5.3c1.2-2.1,4.6-3.4,5.9-5.5c1-1.6,0.7-4.5,1.8-6C367.7,639.5,370.4,638.3,372.2,637.3L372.2,637.3z"/>
	<path id="path7858" inkscape:connector-curvature="0" sodipodi:nodetypes="cssscssssssscsssssscsssssssss" class="st1" d="
		M354.3,666c-1.2-0.5-1.2-2.1-2.1-3.1c-0.9-1.1-3.1-1.5-4-2.5c-1.2-1.3-2.3-3.6-2.5-5.3c-0.1-0.6,0.3-1.9,0.3-1.9s-1.5,2.1-1.5,3.2
		c-0.1,1.9,0.9,4.3,1.8,5.9c0.6,1,2.6,1.7,2.7,2.8c0.1,0.6-0.5,1.5-1,1.6c-0.4,0.1-0.9-0.6-1.3-0.8c-0.9-0.5-1.9-1.7-2.9-1.7
		c-1.3,0-2.3,1.9-3.6,1.8c-1.3-0.1-3.5-2.3-3.5-2.3s0.7,3.4,1.7,4.2c1.3,1,3.9-0.1,5.3,0.6c1.2,0.7,3.5,2.2,3,3.5
		c-0.4,0.9-2.2,0.5-3.1,0.3c-1-0.2-2-1.6-3-1.9c-1.1-0.3-2.8,0.8-3.8,0.3c-1.8-0.9-3.8-5.5-3.8-5.5s-0.8,1.1-0.2,3.1
		c0.3,1.1,2,3.1,2.5,3.7c1.2,1.3,3.9,1.4,5.3,2.5c1.9,1.6,2.4,5.9,4.7,6.7c1.8,0.6,4.6-0.7,6-2c1.6-1.4,1.6-4.8,2.8-6.5
		c0.8-1.1,2.8-1.9,3.3-3.1c0.5-1.1,0.9-3.2,0-3.9C356.4,665.2,355.2,666.4,354.3,666L354.3,666z"/>
	<path id="path7732" inkscape:connector-curvature="0" sodipodi:nodetypes="cssssscsssssssccc" class="st1" d="M616.9,453
		c0,0,5.5,4.6,8.6,5.9c3.6,1.5,9.8-0.4,13.5,1c2.4,0.9,4.1,4.9,6.7,5.5c2.6,0.6,6.1-2.4,8.7-1.9c3.6,0.8,7.3,4.8,9.9,7.6
		c1.6,1.7,4.2,6.3,4.2,6.3s0.1-2.3-0.3-3.8c-0.5-1.7-1.5-2.8-2.2-3.9c-2.2-3.4-6.1-8-9.9-9.3c-2.7-0.9-6.6,1.8-9.3,1
		c-2.6-0.8-4.5-4.4-7-5.3c-2.4-0.9-5.9-0.1-8.4-0.6c-1.7-0.3-4-1.1-5.5-2c-2.7-1.6-8.8-5.7-8.8-5.7l-3.7,2.5L616.9,453z"/>
	<path id="path7734" inkscape:connector-curvature="0" sodipodi:nodetypes="cssssssscssssssssscc" class="st1" d="M612,455.7
		c0,0,5.6,9.1,6.8,13.5c0.9,3.3-1,6.8-0.1,10.1c0.9,3.3,5.2,6.7,5.5,10.1c0.2,3.2-3.1,7.7-3.2,10.9c0,2.1,2.3,4.2,2,6.3
		c-0.9,6.3-10.1,9.7-12.1,15.8c-0.9,2.9-1,6.5-0.6,9.5c0.2,1.1,3.1,5.3,3.1,5.3s-0.9-0.2-2.3-1.6c-0.8-0.8-2.3-2.8-2.5-3.3
		c-1.5-3.7-1.6-7.5-0.6-11.3c1.4-5.1,8.9-9.5,9.7-14.7c0.3-2.2-2.1-4.9-2-7.1c0-0.5,0.1-1.1,0.3-1.6c0.9-2.7,3.4-5.7,3.1-8.4
		c-0.3-2.6-4.6-5.6-5.3-8.1c-1.1-3.5,0.3-9.3-0.7-12.8c-1.1-3.7-5.3-10-5.3-10L612,455.7L612,455.7z"/>
	<path id="path7078" inkscape:connector-curvature="0" sodipodi:nodetypes="cssssssssscc" class="st1" d="M560.7,430.6
		c0,0-6.1-6.4-8.7-9.2c-4-4.2-9.2-10.1-13.4-14.2c-1.2-1.2-2.8-2.8-4.2-3.7c-1.1-0.7-2.7-1.7-4-1.8c-0.6-0.1-1.6,0-2,0.5
		c-0.6,0.8-0.3,2.4-0.1,3.4c0.6,2.5,2.9,5.2,4.3,7.4c1.1,1.9,2.6,4.5,4,6.2c1.5,1.9,3.6,4.4,5.6,5.9c4,3,14.8,7.5,14.8,7.5
		L560.7,430.6L560.7,430.6z"/>
	
		<path id="path6985" inkscape:connector-curvature="0" sodipodi:nodetypes="ccssssscssscssssssccscssssscsssscsscsssscsssscssscsscssscsscssssscccsssscssssssscccc" class="st1" d="
		M556.4,434.4l-3.2-5.5c0,0-1.7-6.1-1.5-8.8c0.1-0.8,0.7-1.8,0.8-2.7c0.2-1.8,0.1-4.3-0.7-5.9c-0.5-0.9-1.7-1.8-2.5-2.4
		c-1.3-0.9-3.6-1.4-4.9-2.4c-1.2-1-3.3-4.1-3.3-4.1s-1.3,3.8-1.1,5.4c0.2,1.9,2.4,3.8,2.6,5.7c0.2,1.7-0.7,3.9-1.4,5.5
		c-0.3,0.7-1.4,2.3-1.4,2.3s-2.9-5.8-4.6-8.1c-1.6-2.2-3.8-5.1-6-6.6c-1.9-1.3-4.8-2.6-7.1-3c-3.6-0.6-8.5,1.3-12.1,0.9
		c-2-0.2-5.6-1.7-6.6-2c-1-0.3-4.5-2.6-6.3-3.9c-1.5-1.1-4.7-4.1-4.7-4.1l0.6,3.3c0,0,0.2,3.4,0.9,4.6c0.6,1.1,3,3,3,3
		s-0.2,0.2-1-0.1c-1-0.4-2.7-1.2-3.3-1.7c-2-1.6-3.4-5-4.9-7.1c-0.8-1.2-1.7-3-2.9-3.8c-0.5-0.4-1.4-1.1-2.4-1.4
		c-1.6-0.6-3.3-0.7-3.3-0.7s2.8,2,3.4,3.3c0.9,1.8,0.4,4.8,0.7,6.8c0.4,2.3,0.8,5.4,1.7,7.5c0.7,1.7,2.5,3.5,3.5,5.1
		c1.4,2.1,4.7,7,4.7,7s-4.3-2-6.2-2.7c-2.3-0.8-5.4-2.1-7.9-2.3c-2.5-0.2-8.4,0.9-8.4,0.9s4.2,1.3,5.7,2.4c2.2,1.6,4.3,4.7,5.9,6.9
		c3.7,4.9,7.1,12.5,11.1,17.1c2.3,2.6,5.8,5.7,8.7,7.4c2.8,1.7,10.2,4.1,10.2,4.1s-5,1.3-7.1,0.8c-2.2-0.5-4.2-3-6.3-3.9
		c-1.9-0.8-4.5-2.1-6.5-2.3c-0.9-0.1-2.6-0.1-3.9,0.1c-1.7,0.3-3.2,1.2-3.2,1.2s6.5,1.9,8.7,3.7c1.6,1.2,2.9,3.6,3.9,5.3
		c1.5,2.4,2.2,6.6,4.3,8.5c2.4,2.2,10,3.9,10,3.9s-0.1,0.3-1.1,0.5c-1.3,0.3-3.7,0.6-4.7,0.5c-1.1-0.1-3.7-1.1-3.7-1.1
		s1.1,2.7,3.2,3.6c1.5,0.7,6.8,1.7,8.4,1.9c3.6,0.5,8.5-0.2,12,0.8c1.6,0.4,4.9,2.4,4.9,2.4s-5.1-0.1-7.2,0.4
		c-1.2,0.3-2.9,1.1-3.8,2c-1,0.9-2.3,3.8-2.3,3.8s3.4-1.3,5-1.5c1.2-0.2,2.8-0.1,4,0.1c2.6,0.5,5.7,2.5,8.4,2.9
		c2.6,0.4,6.3,0.2,8.9-0.3c1.9-0.4,4.3-1.6,6.1-2.3c3-1.2,8.3-5.2,8.3-5.2l12.7,6.2l1,2.1c0,0-1.8,5.5-3.9,6.3
		c-1.8,0.6-4.6-2.7-6.4-3.1c-1.9-0.5-2.8-0.8-4.7-0.3c-1,0.2-2.3,2.4-3.3,2.9c-1.1,0.5-4.7,0.6-4.7,0.6s3,1.8,4.4,2.2
		c2,0.5,4.1-0.9,6.2-1.1c0.8-0.1,2.6,0.8,3.4,1c1.9,0.5,3.1,3.4,4.8,4.4c1.6,1,4,2.2,5.9,2.2c1.3,0,3.1-0.6,4.1-1.5
		c1-0.9,1.8-2.6,2.1-3.9c0.5-2.4-0.5-8.1-0.5-8.1l-4.3-6.1l-26.1-16.5L556.4,434.4L556.4,434.4z"/>
	
		<path id="path6956" inkscape:connector-curvature="0" sodipodi:nodetypes="ccccssssssssssssssssssssssssssssssssssssssssssssssssssssc" class="st1" d="
		M552.5,444.5l3.2-2.9l0.8-4.6l-0.7-2c0,0-3.2-0.2-4.5-0.6c-1.4-0.4-3.3-1.1-4.6-1.8c-1.5-0.8-3.6-1.9-5.1-2.8
		c-1.8-1-4.1-2.7-5.9-3.7c-2.1-1.1-4.9-2.4-7.2-3.1c-1.8-0.6-6.2-1.3-6.2-1.3l0,0c0,0-1.4-0.2-1.9-0.5c-3.3-1.4-7.3-4-10.4-5.9
		c-1.5-0.9-3.3-2.6-4.9-3.1c-0.9-0.3-1.9-1-2.7-0.7c-0.6,0.2-1.4,0.8-1.6,1.4c-0.2,0.8,0.3,1.4,0.8,2.1c0.4,0.7,1.2,1.6,1.9,2
		c0.9,0.6,2.4,1.4,3.4,1.8c1.2,0.5,2.9,1.1,4.1,1.6c1,0.4,2.2,1.1,3.1,1.7c0.3,0.2,0.9,0.4,0.9,0.7c0,0.7-1.4,1.2-2.1,1.4
		c-1.2,0.4-3,0.2-4.3,0.2c-1,0-2.4-0.1-3.4-0.3c-0.6-0.1-1.5-0.3-2.1-0.5c-1.4-0.5-3.3-1.3-4.6-2c-2.2-1.1-4.7-3.4-7-4.3
		c-0.7-0.3-1.7-0.7-2.4-0.6c-0.7,0.1-1.7,0.5-2,1.1c-0.3,0.5-0.2,1.5,0,2.1c0.4,1.1,1.8,2.1,2.6,3c0.7,0.7,2.1,1.7,2.9,2.3
		c1.6,1.2,3.4,2.3,5.3,3c2.1,0.7,5,1.3,7.2,1.6c2.3,0.3,5.5,0.8,7.8,0.6c1.6-0.1,3.6-0.8,5.1-1.3c0.8-0.2,1.7-1,2.5-1
		c0.5,0,0.9,0.7,1.3,0.8c0.8,0.3,2,0.2,2.8,0.3c1.2,0.1,3-0.6,4,0c0.4,0.2,0.7,0.7,0.8,1.1c0.1,0.4,0,0.9-0.2,1.2
		c-0.1,0.2-0.2,0.5-0.4,0.6c-0.4,0.3-1,0.3-1.5,0.4c-0.9,0.2-2.1,0.4-3,0.3c-0.9-0.1-2-1-2.9-0.9c-0.6,0.1-1.4,0.5-1.7,1
		c-0.4,0.6-0.6,1.7-0.2,2.3c0.3,0.5,2,1,2.5,1.3c1.4,0.7,2.1,0.9,3.7,1.3c1.5,0.3,3.6,0.5,5.2,0.1c1-0.3,2.1-1,3.1-1.4
		c0.9-0.3,2.4-0.5,3.4-0.4c1,0.1,2.1,0.7,3,1.1c1.6,0.8,3.6,2.1,5.1,3C547.6,441.6,552.5,444.5,552.5,444.5L552.5,444.5z"/>
	<g id="g6928" transform="matrix(0.54304697,0.33803514,-0.33803514,0.54304697,-160.65353,-228.33395)">
		
			<path id="path6819" inkscape:connector-curvature="0" sodipodi:nodetypes="csscccscccscsssscccscscscscscscscscscsccsscsssssscscsccsccscscscssscccc" class="st4" d="
			M1600.5,323.5c0,0,5.7-1.3,8.2-0.9c2,0.3,4.4,1.6,6,2.7c1.9,1.2,5.4,5.1,5.4,5.1h-3.3l-3.6,0.6c0,0,1.9,1.5,2.4,2.4
			c0.9,1.5,1.8,5.4,1.8,5.4l-4.5-1.8h-1.5c0,0,1.4,2,1.8,3c0.6,1.5,1.2,5.1,1.2,5.1s-5.5-1.6-7.6-2.4c-1.9-0.7-3.1-2.7-5.1-2.4
			c-2.8,0.4-4.8,4.7-6,7.3c-1.3,2.8-2.2,6.9-2.1,10c0.1,2.3,2.1,7.3,2.1,7.3l-9.7-7.6l-3,4.8c0,0-3.1-2.9-3.9-4.5
			c-0.8-1.5-1.2-5.4-1.2-5.4s-1.9,1.3-2.4,2.1c-0.6,1-0.9,3.6-0.9,3.6s-2.5-3.2-3-4.8c-0.5-1.5-0.3-5.1-0.3-5.1s-1.3,2.4-2.1,3.3
			c-1.4,1.5-5.4,4.2-5.4,4.2s0.9-4,0.6-5.7c-0.2-1.3-1.8-3.9-1.8-3.9s-1.5,4.5-2.7,6c-1.2,1.6-5.1,4.2-5.1,4.2s0-3-0.3-4.2
			c-0.3-1.1-1.5-3.3-1.5-3.3s-2.7,4.3-4.2,5.7c-2,1.8-7.6,4.8-7.6,4.8s-0.1-3.8-0.3-5.4c-0.1-0.9-0.6-3-0.6-3s-2.7,6.1-4,7.2
			c-0.8,0.8-3.3,1.8-3.3,1.8l0.7-6.6c0,0-2.8,3.8-4.5,4.8c-1.4,0.9-3.8,1.2-5.4,1.5c-2.3,0.5-7.9,1.2-7.9,1.2s4.3-4.3,5.1-6.6
			c0.2-0.6,0.3-1.6,0-2.1c-0.5-0.9-2-1.6-3-1.8c-1.1-0.2-2.6-0.1-3.6,0.3c-2,0.7-4.1,3-6,3.9c-2.9,1.3-7.9,2.8-11,3.4
			c-1.2,0.2-3.2-0.1-3.2-0.1s4.2-2.1,5.4-3.6c1.7-2.1,3-8.5,3-8.5s-4.2,4-6.3,5.1c-1.8,0.9-6.6,1.8-6.6,1.8l1.7-5.3
			c0,0-3.5,0.8-5.1,0.7c-1.4-0.1-4.3-1.1-4.3-1.1l3.6-4.5c0,0-2.9-2-5.3-2.1c-2.6-0.2-8.5,2.4-8.5,2.4s2.2-4.7,3.6-6.3
			c1.5-1.7,6-4.5,6-4.5s-3.5-0.3-4.8-0.9c-2.3-1-6.6-5.1-6.6-5.1s3.2,0.4,4.5,0c1.6-0.5,3.3-2.2,4.8-3c1.8-0.9,4.1-2.2,6-2.7
			c8.1-2.2,27.8-3,27.8-3l6.3,10l63.1,13.3L1600.5,323.5L1600.5,323.5z"/>
		<path id="path6732" inkscape:connector-curvature="0" sodipodi:nodetypes="cccccccssc" class="st5" d="M1603.6,327.1l-17.9,17.6
			l-5.4,0.6l-11.7-6l-17.1-2.8l-23.3-2.6l-3.4-17.6c0,0,30.8,3.5,44.1,4.6c6.1,0.5,14.2-0.1,20.2,1.1
			C1593.6,322.9,1603.6,327.1,1603.6,327.1z"/>
		<path id="path6746" inkscape:connector-curvature="0" sodipodi:nodetypes="csssssssscssssssssssccccs" class="st4" d="
			M1546.9,335.4c4.5-1.3,3.7-4.1,8.3-4.9c1.8-0.3,3.3-2.7,5.1-3.3c1.6-0.5,2.7-0.9,4.4-0.8c2.2,0.1,5.2,1.7,7.3,1.5
			c3.1-0.3,6.8-1.7,9.1-3.7c1.3-1.2,3.4-4.5,4.6-5.9c1.9-2.2,3.7-4.1,6.3-5.4c3-1.5,9.1-2.2,12.5-2.6c2.6-0.3,8.5,0.9,8.5,0.9
			s-4.5-4-6.8-4.8c-2.4-0.9-5.6-1.3-8.6-1.4c-1.4,0-2.7,0.1-3.9,0.2c-2.2,0.3-4.8,1.6-6.8,2.6c-1.9,0.9-4.6,3.2-6.2,4.5
			c-2.3,1.8-4.1,4.5-6.6,6c-1.1,0.7-3.7,0.6-5.1,0.5c-1.8,0-4-1-5.7-1.7c-2.8-1.2-5.9-4-8.8-4.8c-3.7-1.1-8.2-0.4-12-0.5
			c-3.1-0.1-10.2,0-10.2,0l-11.1,5.1l1.1,10l13.1,6.5C1535.3,333.4,1545.7,335.8,1546.9,335.4L1546.9,335.4z"/>
		<path id="path6748" inkscape:connector-curvature="0" sodipodi:nodetypes="csscssccc" class="st5" d="M1535.9,309.7
			c0,0,1.4,3.5,1.8,5.9c0.4,2.4,2.7,3.8,2.7,6.1c0,1.4-0.5,7-0.5,7s3-2.7,4-5.4c0.6-1.9,0.4-5.2,0.3-7.1c-0.2-2.2-0.9-7.4-0.9-7.4
			l-4.3-0.9L1535.9,309.7z"/>
		<path id="path6750" inkscape:connector-curvature="0" sodipodi:nodetypes="cscsscc" class="st5" d="M1551,334.8
			c0,0,0.3-4.6,0.3-6.5c0-1.8-0.6-6-0.6-6s2.4,2.9,3.1,4.3c0.7,1.4,1.5,3.5,1.7,5.1c0.1,1-0.3,3.4-0.3,3.4L1551,334.8L1551,334.8z"
			/>
		<path id="path6756" inkscape:connector-curvature="0" sodipodi:nodetypes="cccscsc" class="st5" d="M1580.8,345.6l4.1-0.4l1.9-2.2
			c0,0-3.3-6.4-5.1-8.5c-1.2-1.4-4-3.4-4-3.4s-0.5,3.2-0.3,4.6C1577.8,338.8,1580.8,345.6,1580.8,345.6L1580.8,345.6z"/>
		<path id="path6758" inkscape:connector-curvature="0" sodipodi:nodetypes="cccscsc" class="st5" d="M1599.1,330.7l4-1.1l-1.1-1.1
			c0,0-1.8-7.1-4-8.9c-1.4-1.2-4.5-2.7-4.5-2.7s0.1,3.2,0.5,4.5C1595,324.5,1599.1,330.7,1599.1,330.7z"/>
		
			<path id="path6726" inkscape:connector-curvature="0" sodipodi:nodetypes="csssssssssssssssssssssssssssscsssssssssssssssssssccc" class="st4" d="
			M1550.6,279.5c0,0-17.8-9.7-28-11.2c-2.6-0.4-6.1-1.1-8.6-0.4c-2.6,0.7-5.6,3-7.5,4.9c-0.6,0.6-0.8,1.9-1.5,2.3
			c-1.4,0.7-3.8-0.5-5.3,0c-2.3,0.8-4.9,3-6.4,4.9c-1.1,1.4-2.1,3.6-2.3,5.3c-0.2,2.2-1.1,5.3,0.9,6.2c0.8,0.4,2.4-0.7,3.3-0.5
			c1.9,0.3,3.5,3.1,4.1,4.9c0.5,1.6-0.7,4-0.4,5.6c0.9,5.5,6.6,11.7,7.1,17.3c0.3,2.8-1.9,6.3-1.9,9c0,2.4,0.8,5.7,1.9,7.9
			c1,2.1,3,4.7,4.9,6c2.7,1.9,7.2,3.2,10.5,3.8c3.9,0.7,9.2,0.5,13.2,0c5.3-0.7,12-3.7,17.3-4.5c2.1-0.3,5-0.4,7.1-0.4
			c3.2,0.1,7.5,0.1,10.5,1.1c2.6,0.9,5.3,4,7.9,4.9c2,0.7,5,1.2,7.1,0.8c1.8-0.4,4-2,5.3-3.4c0.9-0.9,1.4-2.7,2.3-3.8
			c1.7-2.2,4.5-4.7,6.8-6.4c0.9-0.7,2.5-1.2,3.4-1.9c1.7-1.3,4.9-3.1,4.9-5.3c0-1.4-1.8-2.7-3-3.4c-0.9-0.5-3.4-0.8-3.4-0.8
			s0.8,2.7,0.4,3.8c-0.4,1.2-1.9,2.3-3,3c-0.8,0.5-2.2,0.6-3,1.1c-2.7,1.8-5.8,5.1-7.5,7.9c-0.7,1-0.7,2.9-1.5,3.8
			c-0.8,0.8-2.3,1.4-3.4,1.5c-1.3,0.1-3-0.3-4.1-0.8c-4.8-1.8-9.8-7.4-14.7-9c-3.3-1.1-9-1.3-12.5-1.4c-3.4-0.1-6.5-0.5-9.9-1
			c-2.7-0.5-7.1-0.2-9-2.3c-1.3-1.4-1.7-4.1-1.9-6c-0.2-1.8,0.2-3.6,1.3-5.1c1.4-1.9,4.2-2.7,6.4-3.4c2.6-0.8,6.4-1.1,9-1.9
			c3.5-1.1,8-2.9,11.3-4.5c4.4-2.2,10.4-5.2,13.9-8.6c1.3-1.3,2.6-3.6,3.4-5.3c1.2-2.4,2.9-5.6,3-8.3c0.1-1.9-1.5-6-1.5-6l-17.7-4.1
			L1550.6,279.5L1550.6,279.5z"/>
		<path id="path6716" inkscape:connector-curvature="0" sodipodi:nodetypes="cssccscscsccscsscscscscscscscssss" class="st4" d="
			M1573.1,258c0.2-1.3,0.6-2.9,0.9-4.3c0.4-2.4,1.9-5.5,3.4-7.4c2.6-3.2,9.9-8.6,9.9-8.6l-3.1,11.2c0,0,3-3.1,4.6-4
			c2-1.2,7.6-2.6,7.6-2.6s-2.7,3.5-3.2,5.3c-0.3,1.1-0.1,3.9-0.1,3.9s2.5-0.9,3.6-1c1.6-0.2,4.7-0.3,4.7-0.3l-5.2,6.2
			c0,0,3.3-0.5,4.7-0.4c2.3,0.1,7.6,1.6,7.6,1.6s-10.2,4.9-12.2,9c-1.6,3.3-1.3,8.9,0.4,12.2c1.1,2.1,6.4,4.9,6.4,4.9
			s-4.3,1.9-6,2.1c-2.2,0.3-6.6-0.7-6.6-0.7s-0.4,2.7-0.2,3.9c0.2,1.2,1.5,3.8,1.5,3.8s-5.6-1.6-7.9-2.6c-0.7-0.3-2.1-1.4-2.1-1.4
			s-1.1,2.8-1.3,4c-0.2,1.5,0.4,5,0.4,5s-4.9-2.2-6-4.2c-0.9-1.6-0.4-6.3-0.4-6.3s-1.8,3.8-3,5c-1.5,1.5-6,3.6-6,3.6s1.7-4.8,2-7
			c0.4-3.2-1-7.7-0.3-10.9c0.7-3.1,4-6.4,4.9-9.4C1573,265.4,1572.6,261.1,1573.1,258L1573.1,258z"/>
		<g id="g6706">
			
				<path id="path6643" inkscape:connector-curvature="0" sodipodi:nodetypes="cssssscsssscsssscssssscsssssssssssssc" class="st4" d="
				M1570,274.8c0,0,0.9,3.3,1.5,4.6c0.6,1.3,1.4,1.7,2.7,2.1c1.5,0.3,3.5,0.6,4.9,0.1c2-0.7,3.7-2,4.8-3.8c0.8-1.4,1.1-3,0.8-4.3
				c-0.2-0.9-1.9-2.4-1.9-2.4s3.1-1.5,3.8-2.9c0.7-1.2,1.1-3.3,0.6-4.7c-0.5-1.5-1.8-2.9-3.2-3.5c-0.5-0.2-2.3,0.1-3,0.2
				c-0.3,0,0.1-0.2,0.1-0.2s0.8-2,0.5-3c-0.2-0.7-0.6-1.8-1.2-2.1c-1.4-0.7-3.9-0.7-5.3,0c-2,0.9-3.4,2.9-4.3,4.9
				c-0.6,1.4-0.6,5-0.6,5s-3.6,0.1-5,0.6c-1,0.4-2,1.2-2.8,1.9c-1.7,1.4-3.8,3.4-5.3,5c-1.3,1.4-2.7,3.6-4.1,5
				c-1.3,1.3-3.2,3-4.7,4.1c-1.3,0.9-20-1.8-20-1.8s0,3.1,0.3,4.4c0.2,1.1,1,2.4,1.3,3.5c0.4,1.5,15.8,8.3,16.6,9.6
				c0.6,1.1,2,2.4,3.1,2.8c0.8,0.3,2.1,0.5,2.8,0c1-0.6,0.6-2.9,1.6-3.5c0.9-0.5,2.4,0.7,3.5,0.6c0.5-0.1,1.2-0.3,1.6-0.6
				c0.7-0.7,0.4-2.6,1.3-3.1c0.7-0.4,2,0.5,2.8,0.3c1.1-0.2,2.4-1,3.1-1.9c0.7-0.8,1-2.1,1.3-3.1c0.3-1.6,0.1-3.8,0.3-5.3
				C1568.2,280.7,1570,274.8,1570,274.8L1570,274.8z"/>
		</g>
		<path id="path6728" inkscape:connector-curvature="0" sodipodi:nodetypes="csssssscsc" class="st5" d="M1539.3,270.8
			c0,0,6.7,0.3,8.8,2c1.2,0.9,2.6,1.9,2.8,3.4c0.1,0.9-0.1,2.1-0.6,2.8c-0.6,1.1-2.1,2.2-3.1,2.8c-1.5,0.9-3.7,2.1-5.4,2.3
			c-1.5,0.2-3.4-0.4-4.8-0.9c-1.7-0.5-5.4-2.6-5.4-2.6s4.2-2.6,5.4-4.3C1538.4,274.7,1539.3,270.8,1539.3,270.8L1539.3,270.8z"/>
		<path id="path6730" inkscape:connector-curvature="0" sodipodi:nodetypes="csssssscssc" class="st5" d="M1529.9,285.8
			c0,0,7.1,0.7,10,1.7c1.5,0.5,3.6,1.3,4.6,2.6c1.5,2.1,1.7,4.8,1.1,7.4c-0.4,1.7-2,3.8-3.4,4.8c-1.5,1.1-4.1,1.8-6,2
			c-2.3,0.2-5.1,0.5-7.4,0c-1.1-0.3-3.7-2.3-3.7-2.3s4.3-2.6,5.1-4.6c0.9-2.1,0.9-5.1,0.9-7.4C1531,288.8,1529.9,285.8,1529.9,285.8
			z"/>
		
			<path id="path7288" inkscape:radius="1.3527765" sodipodi:type="inkscape:offset" inkscape:original="M 1154.9375 182.625 C 1153.303 182.625 1151.9687 183.926 1151.9688 185.5 C 1151.9688 187.074 1153.303 188.34375 1154.9375 188.34375 C 1156.572 188.34375 1157.9063 187.074 1157.9062 185.5 C 1157.9062 183.926 1156.572 182.625 1154.9375 182.625 z " class="st6" d="
			M1540.4,272.4c-2.4,0-4.3,1.9-4.3,4.2c0,2.3,2,4.2,4.3,4.2s4.3-1.8,4.3-4.2C1544.7,274.3,1542.7,272.4,1540.4,272.4z"/>
		
			<path id="path7286" inkscape:radius="1.2766325" sodipodi:type="inkscape:offset" inkscape:original="M 1154.9375 182.625 C 1153.303 182.625 1151.9687 183.926 1151.9688 185.5 C 1151.9688 187.074 1153.303 188.34375 1154.9375 188.34375 C 1156.572 188.34375 1157.9063 187.074 1157.9062 185.5 C 1157.9062 183.926 1156.572 182.625 1154.9375 182.625 z " class="st6" d="
			M1535.4,290.5c-2.6,0-4.7,2.1-4.7,4.8c0,2.6,2.2,4.7,4.7,4.7c2.5,0,4.7-2.1,4.7-4.7C1540.1,292.7,1537.9,290.5,1535.4,290.5z"/>
		<path id="path6778" inkscape:connector-curvature="0" sodipodi:nodetypes="csssssscsssscssscs" class="st4" d="M1529,282.5
			c1.7-0.3,3.5-1.8,4.8-3c2-1.7,3.5-3.4,4.6-5.8c0.7-1.4,1.2-3.9,0.6-5.3c-0.6-1.7-1.5-2.9-3.2-3.5c-2.1-0.7-5.3-0.4-7.3,0.4
			c-1.2,0.5-2.1,2.2-3.1,3.1c-1.3,1.2-4.3,3.2-4.3,3.2s1.1,0.3,2.2,0.3c0.9,0,1.6-0.5,2.1-0.1c0.7,0.6,1,2.1,0.8,3
			c-0.3,1-1.7,1.7-2.4,2.3c-0.9,0.7-1.2,1.4-1.2,1.4s1.3-0.2,2.7-0.3c0.8-0.1,1.7-0.5,2.2,0.1c0.3,0.3,0.1,1.1-0.1,1.4
			c-0.8,1.2-2.2,2.2-2.2,2.2S1527.1,282.8,1529,282.5L1529,282.5z"/>
		<path id="path6780" inkscape:connector-curvature="0" sodipodi:nodetypes="cssssssscsssscssscssscsssc" class="st4" d="
			M1514.3,285.8c0,0,2.9-1.9,4.2-2.3c1.1-0.4,2.4,0,3.6-0.5c1.1-0.4,2.6-1,3.7-0.9c1.6,0.1,3.8,0.9,5,2c1,0.9,1.8,2.7,1.9,4.1
			c0.2,2.8-1.1,6.5-1.9,9.2c-0.6,2.2-1.5,4.3-2.5,6.4c-0.6,1.3-2.6,3.9-2.6,3.9s0.1-3-0.9-3.7c-0.8-0.6-1.8,0.6-2.6,1.1
			c-0.6,0.3-1.2,1.4-2,1.4c-0.8,0-2.6,0.3-3.7,0.1c-1.1-0.2-3-2-3-2s3,0.1,4-0.6c0.9-0.6,2.2-2,1.6-2.8c-0.5-0.7-2.1,0.5-3,0.3
			c-0.6-0.1-1.7-0.8-1.7-0.8s4-2.6,5.6-3.9c0.4-0.3,1.3-0.6,1.2-1.1c-0.1-1-1.9-1.4-2.8-1.6c-0.8-0.2-2.8,0.3-2.8,0.3s1.1-2.7,2-3.6
			c0.7-0.7,2.8-0.4,3-1.4c0.2-1.3-2-2.2-3.1-2.8C1516.5,286.1,1514.3,285.8,1514.3,285.8L1514.3,285.8z"/>
		<path id="path6784" inkscape:connector-curvature="0" sodipodi:nodetypes="cssssscssssssc" class="st4" d="M1481.3,315.2
			c2.5,0.3,3.1,1,4.4,0.8c1.9-0.2,4-1.7,5.8-2.5c2.2-1,4.8-2.8,7.1-3.3c1.6-0.4,3.9-0.3,5.5,0c2.7,0.5,5.8,2.8,8.5,3.3
			c1.1,0.2,3.8,0,3.8,0s-1.2,1-3.6,2c-1.6,0.7-5,2.2-6.1,2.7c-1.6,0.7-4.3,1.7-5.9,2.2c-2.3,0.8-4.2,0.9-6.7,1.1
			c-1.7,0.1-3.9-0.2-5.5-0.8c-1.5-0.5-3.2-1.8-4.4-2.7C1483.4,317.2,1481.3,315.2,1481.3,315.2L1481.3,315.2z"/>
	</g>
	<path id="path2492" inkscape:connector-curvature="0" sodipodi:nodetypes="cscsscc" class="st2" d="M574,479.8c0,0,0.8-1.4,1.5-2.4
		c0.6-1,1.7-3.4,1.7-3.4s0.3,2.4,0.3,3.4c-0.1,1-0.4,2.4-0.8,3.4c-0.3,0.6-0.6,0.9-0.6,0.9L574,479.8L574,479.8z"/>
</g>
</svg>
